<svg width="52" height="46" viewBox="0 0 52 46" fill="none" xmlns="http://www.w3.org/2000/svg">
<path d="M39.3389 0H12.1731C5.5982 0 0.268188 4.90653 0.268188 10.959V35.041C0.268188 41.0935 5.5982 46 12.1731 46H39.3389C45.9138 46 51.2438 41.0935 51.2438 35.041V10.959C51.2438 4.90653 45.9138 0 39.3389 0Z" fill="#4E983D" fill-opacity="0.5"/>
<path d="M12.1731 0.5H39.3389C45.6774 0.5 50.7438 5.22084 50.7438 10.959V35.041C50.7438 40.7792 45.6774 45.5 39.3389 45.5H12.1731C5.83457 45.5 0.768188 40.7792 0.768188 35.041V10.959C0.768188 5.22084 5.83457 0.5 12.1731 0.5Z" stroke="#F1E8E8" stroke-opacity="0.8"/>
<path d="M40.2069 35.6202H11.2763C8.88235 35.6202 6.93677 34.0822 6.93677 32.178V13.822C6.93677 11.9178 8.88235 10.3798 11.2763 10.3798H40.2069C42.6009 10.3798 44.5465 11.9178 44.5465 13.822V32.178C44.5392 34.0822 42.6009 35.6202 40.2069 35.6202ZM11.3053 12.6502C10.9487 12.6263 10.5964 12.7334 10.3253 12.948C10.0542 13.1626 9.88649 13.4672 9.85875 13.7953V32.178C9.88652 32.5067 10.054 32.812 10.3248 33.0276C10.5957 33.2433 10.948 33.3519 11.3053 33.3299H40.2358C40.5927 33.3501 40.9439 33.2409 41.2144 33.0256C41.4848 32.8103 41.6528 32.506 41.6823 32.178V13.822C41.6528 13.4945 41.4845 13.1909 41.2139 12.9766C40.9433 12.7624 40.592 12.6547 40.2358 12.6768L11.3053 12.6502Z" fill="#4E983D" fill-opacity="0.5"/>
<path d="M9.36053 13.7532L9.35875 13.7742V13.7953V32.178V32.1991L9.36053 32.2201C9.40051 32.6933 9.64093 33.1222 10.0134 33.4188C10.3803 33.7109 10.8489 33.8549 11.3196 33.8299H40.2226C40.6925 33.853 41.1597 33.7083 41.5258 33.4168C41.8971 33.1211 42.1378 32.6944 42.1803 32.223L42.1823 32.2005V32.178V13.822V13.7994L42.1803 13.777C42.1377 13.3056 41.8963 12.8792 41.5242 12.5846C41.1578 12.2945 40.6907 12.1517 40.2217 12.1768L11.321 12.1502C10.8511 12.123 10.3823 12.2651 10.0149 12.5559C9.6417 12.8514 9.40053 13.28 9.36053 13.7532ZM40.2069 35.1202H11.2763C9.04374 35.1202 7.43677 33.7038 7.43677 32.178V13.822C7.43677 12.2962 9.04374 10.8798 11.2763 10.8798H40.2069C42.4395 10.8798 44.0465 12.2962 44.0465 13.822L44.0465 32.1761C44.0465 32.1765 44.0465 32.1768 44.0465 32.1771C44.04 33.7055 42.437 35.1202 40.2069 35.1202Z" stroke="#F1E8E8" stroke-opacity="0.8"/>
<path d="M32.9814 21.8515C30.5874 21.8515 28.6418 20.3135 28.6418 18.4093C28.6418 16.5051 30.5874 14.9671 32.9814 14.9671C35.3754 14.9671 37.321 16.5118 37.321 18.4093C37.321 20.3068 35.3754 21.8515 32.9814 21.8515ZM32.9814 17.2642C32.6253 17.242 32.274 17.3497 32.0034 17.564C31.7327 17.7782 31.5645 18.0819 31.5349 18.4093C31.5349 18.7625 31.6873 19.1012 31.9586 19.3509C32.2299 19.6006 32.5978 19.7409 32.9814 19.7409C33.3651 19.7409 33.733 19.6006 34.0043 19.3509C34.2756 19.1012 34.428 18.7625 34.428 18.4093C34.3984 18.0819 34.2301 17.7782 33.9595 17.564C33.6889 17.3497 33.3376 17.242 32.9814 17.2642V17.2642Z" fill="#4E983D" fill-opacity="0.5"/>
<path d="M31.0369 18.3644L31.0349 18.3868V18.4093C31.0349 18.9091 31.2509 19.3791 31.6199 19.7188C31.9876 20.0572 32.4779 20.2409 32.9814 20.2409C33.4849 20.2409 33.9753 20.0572 34.3429 19.7188C34.7119 19.3791 34.928 18.9091 34.928 18.4093V18.3868L34.9259 18.3644C34.8834 17.8929 34.6419 17.4665 34.2698 17.172C33.9071 16.8848 33.4457 16.7419 32.9814 16.7634C32.5172 16.7419 32.0558 16.8848 31.693 17.172C31.3209 17.4665 31.0795 17.8929 31.0369 18.3644ZM32.9814 21.3515C30.7488 21.3515 29.1418 19.9351 29.1418 18.4093C29.1418 16.8835 30.7488 15.4671 32.9814 15.4671C35.2134 15.4671 36.821 16.8896 36.821 18.4093C36.821 19.929 35.2134 21.3515 32.9814 21.3515Z" stroke="#F1E8E8" stroke-opacity="0.8"/>
<path d="M40.2068 35.6202C39.9775 35.6242 39.7503 35.5801 39.5423 35.4913C39.3343 35.4024 39.151 35.2712 39.0062 35.1075L32.7355 27.6506C32.4936 27.3916 32.1609 27.2185 31.7951 27.1614C31.4293 27.1043 31.0532 27.1666 30.732 27.3377C30.5777 27.416 30.4423 27.5225 30.3343 27.6506L29.8424 28.2232C29.5773 28.4633 29.2302 28.6118 28.8598 28.6433C28.4894 28.6749 28.1186 28.5876 27.8101 28.3963C27.5553 28.2495 27.3741 28.0156 27.3064 27.746C27.2386 27.4765 27.2897 27.1931 27.4484 26.9582L27.9258 26.3723C28.6465 25.5914 29.6414 25.0674 30.7378 24.891C31.8343 24.7147 32.9633 24.8972 33.9289 25.4069C34.4002 25.653 34.8153 25.9808 35.1512 26.3723L41.4074 33.8425C41.509 33.9666 41.5797 34.1097 41.6145 34.2618C41.6492 34.4138 41.6472 34.571 41.6086 34.7223C41.5699 34.8735 41.4955 35.015 41.3908 35.1369C41.286 35.2587 41.1534 35.3578 41.0024 35.4271C40.7618 35.5583 40.4863 35.6251 40.2068 35.6202V35.6202Z" fill="#4E983D" fill-opacity="0.5"/>
<path d="M33.1182 27.3288L33.1098 27.3188L33.1009 27.3093C32.7791 26.9647 32.3432 26.7409 31.8723 26.6674C31.403 26.5941 30.9189 26.6729 30.5013 26.8941C30.2918 27.0011 30.1049 27.1475 29.9536 27.3264L29.4855 27.8713C29.3073 28.0243 29.0729 28.1234 28.8173 28.1451C28.5514 28.1678 28.2883 28.1045 28.0736 27.9714L28.0667 27.9671L28.0597 27.9631C27.9147 27.8795 27.8239 27.7541 27.7913 27.6241C27.7603 27.5012 27.7799 27.3699 27.8525 27.2538L28.3034 26.7004C28.9437 26.0118 29.8312 25.5433 30.8172 25.3847C31.8086 25.2253 32.8275 25.3909 33.6955 25.849L33.6955 25.8491L33.6975 25.8501C34.1133 26.0672 34.477 26.3549 34.7699 26.6957L41.022 34.1611C41.0753 34.2267 41.1101 34.2993 41.127 34.3732C41.1441 34.4476 41.1431 34.5242 41.1241 34.5984C41.1051 34.6728 41.0678 34.7457 41.0117 34.8109C40.9555 34.8762 40.8817 34.9323 40.7938 34.9727L40.7781 34.9799L40.763 34.9881C40.6001 35.077 40.4104 35.1237 40.2156 35.1203L40.2068 35.6202L40.1981 35.1203C40.0383 35.123 39.881 35.0922 39.7386 35.0314C39.5982 34.9715 39.4778 34.8848 39.3844 34.7804L33.1182 27.3288Z" stroke="#F1E8E8" stroke-opacity="0.8"/>
<path d="M11.3052 35.6202C11.0323 35.6232 10.7633 35.5613 10.5241 35.4404C10.3707 35.3736 10.2353 35.2764 10.1276 35.1557C10.0198 35.035 9.94246 34.8938 9.90098 34.7424C9.8595 34.5909 9.85494 34.4329 9.88764 34.2796C9.92034 34.1263 9.98948 33.9816 10.0901 33.8558L19.073 22.8169C19.5049 22.3176 20.0555 21.9162 20.6825 21.6438C21.3095 21.3714 21.9961 21.2352 22.6894 21.2456V21.2456C23.3792 21.2337 24.0631 21.3658 24.6894 21.6322C25.3158 21.8986 25.8684 22.2923 26.3057 22.7836L35.5996 33.8425C35.6861 33.9786 35.739 34.1307 35.7543 34.2877C35.7697 34.4448 35.7472 34.6031 35.6885 34.7513C35.6298 34.8994 35.5363 35.0338 35.4146 35.1449C35.293 35.256 35.1463 35.341 34.9848 35.3938C34.688 35.5228 34.3552 35.5645 34.0317 35.5133C33.7082 35.4621 33.4097 35.3204 33.1767 35.1075L23.9044 24.0553C23.7582 23.8898 23.5725 23.7575 23.3618 23.6686C23.1511 23.5797 22.921 23.5366 22.6894 23.5426V23.5426C22.4588 23.5397 22.2307 23.5857 22.0225 23.6769C21.8143 23.7681 21.6317 23.9021 21.4887 24.0686L12.5203 35.0942C12.3751 35.2618 12.19 35.3963 11.9793 35.4875C11.7686 35.5787 11.538 35.6241 11.3052 35.6202V35.6202Z" fill="#4E983D" fill-opacity="0.5"/>
<path d="M10.7495 34.9942L10.7368 34.9877L10.7238 34.9821C10.6342 34.943 10.5586 34.8877 10.5006 34.8227C10.4427 34.7579 10.4037 34.685 10.3832 34.6103C10.3628 34.5358 10.3607 34.4588 10.3766 34.3839C10.3925 34.3094 10.4266 34.236 10.4794 34.1696L19.456 23.1385C19.8363 22.7004 20.3234 22.345 20.8818 22.1024C21.4426 21.8587 22.0586 21.7362 22.6818 21.7456L22.6894 21.2456L22.698 21.7455C23.3187 21.7348 23.9328 21.8538 24.4937 22.0923C25.0524 22.3299 25.5419 22.6791 25.9276 23.1109L35.192 34.1347C35.2286 34.1992 35.25 34.2678 35.2567 34.3364C35.2643 34.4136 35.2534 34.492 35.2237 34.567C35.1939 34.6423 35.145 34.714 35.0775 34.7757C35.0098 34.8375 34.9255 34.8871 34.8292 34.9187L34.807 34.9259L34.7856 34.9352C34.5771 35.0258 34.3406 35.056 34.1099 35.0194C33.89 34.9846 33.6912 34.8918 33.5363 34.7583L24.2875 23.7339L24.2876 23.7338L24.2791 23.7241C24.0814 23.5005 23.8334 23.3249 23.5562 23.2079C23.282 23.0922 22.9846 23.0362 22.686 23.0426C22.3886 23.0402 22.0933 23.1 21.8219 23.2189C21.5475 23.3391 21.303 23.5174 21.1094 23.7429L21.1093 23.7428L21.1009 23.7531L12.1378 34.772C12.0441 34.8785 11.9227 34.9672 11.7807 35.0287C11.6362 35.0912 11.4763 35.123 11.3136 35.1203L11.3052 35.6202L11.2997 35.1202C11.1055 35.1224 10.9158 35.0782 10.7495 34.9942Z" stroke="#F1E8E8" stroke-opacity="0.8"/>
</svg>
